<svg id="BIMI_logo_wordrops" data-name="BIMI logo wordrops" xmlns="http://www.w3.org/2000/svg" width="180.074" height="180.074" viewBox="0 0 180.074 180.074">
  <path id="Path_11" data-name="Path 11" d="M90.037,0A90.037,90.037,0,1,1,0,90.037,90.037,90.037,0,0,1,90.037,0Z" fill="#0095ad"/>
  <path id="Path_1" data-name="Path 1" d="M631.736,391.787c1.338-.631,6.241.2,12.014.278,5.384.075,10.886-.3,12.21-.846,2.707-1.123,3.688-3.068,5.376-4.442,2.829-2.3,5.128-3.886,5.128-3.886,9.529-4.932,18.035-.9,22.891-1.807s18.4-7.3,28.292-5.812c5.77.87,16.319,3.446,22.884,11.7,2.887,3.629,4.974,8.326,5.826,15.346.491,4.037.826,10.792.1,14.632s-1.621,8.147-5.289,12.285-10.211,8.666-13.125,9.645c-5.2,1.749-9.222.989-9.521.838-.89-.449-1.352-3.145-.355-4.231s1.768-.646,4.468-2.827,6.036-5.532,5.136-7.957c-1.536-4.138-3.915-6.622-5.778-7.493a39.809,39.809,0,0,0-8.427-2.253c-1.949-.233-4.751-.638-7.111.565a10.106,10.106,0,0,0-5.124,6.941,20.778,20.778,0,0,1-1.679,5.151c-1.578,3.232-5.943,8.4-10.411,10.448s-12.9,2.895-14.009.464-.344-3.644,2.27-4.585,8.028-5.175,9.073-7.848,1.526-6.063-.093-8.961-6.105-8.583-8.98-8.8a119.418,119.418,0,0,0-13.762.269,60.032,60.032,0,0,1-20.752-.19c-10.746-1.757-11.551-4.206-13.291-8.14S630.4,392.418,631.736,391.787Z" transform="translate(-612.762 -316.908)" fill="#fff"/>
  <path id="Path_3" data-name="Path 3" d="M988.146,412.585s14.889-12.273,17.747-12.614a56.8,56.8,0,0,1,10.835.256c1.109.3,4.053,1.28,3.029,2.09s-8.617,1.962-8.617,1.962l-9.128.6-12.238,13.607s-.333-1.885-.762-3.3S988.146,412.585,988.146,412.585Z" transform="translate(-856.747 -336.136)" fill="#fff"/>
  <path id="Path_4" data-name="Path 4" d="M997.286,437.723c.148,2.3,0,5.213,0,5.213s13.814-.651,20.981-7.135,9.555-12.925,9.768-15.527-.469-6.825-1.067-7.081-7,8.574-7.465,9.683-2.3,5.631-2.3,5.631Z" transform="translate(-861.93 -345.177)" fill="#fff"/>
  <path id="Path_5" data-name="Path 5" d="M1039.9,411.835l-18.4,11.918a7.018,7.018,0,0,1-1.962,2.431c-.981.512-2.559.384-2.986-.3s.171-2.175.853-2.73a5.882,5.882,0,0,1,3.327-.938c1.109.043,19.168-10.382,19.168-10.382Z" transform="translate(-875.741 -344.262)" fill="#fff"/>
  <path id="Path_10" data-name="Path 10" d="M1.612,0c.809,0,1.625,1.007,1.625,2.973S2.445,5.209,1.551,5.209,0,4.94,0,2.973.8,0,1.612,0Z" transform="matrix(0.799, 0.602, -0.602, 0.799, 58.878, 76.266)" fill="#0095ad"/>
  <path id="Path_8" data-name="Path 8" d="M2.306,0s.324.138.659.26.682.23.682.23a15.812,15.812,0,0,0-2.208,7.9C1.3,13.274,4.247,20.777,4.247,20.777l-1.721-.906S-.191,13.033.011,8.158A15.568,15.568,0,0,1,2.306,0Z" transform="translate(39.588 75.855) rotate(-31)" fill="#0095ad"/>
  <path id="Path_10-2" data-name="Path 10" d="M3.289-1.031A24.807,24.807,0,0,1-1.16,11.032s4.444,8.99,5.71,11.058c1.981,1.39,4.4,0,4.623-.7s-.451-3.868-1.982-11.12A41.1,41.1,0,0,0,3.289-1.031Z" transform="translate(131.869 100.413)" fill="#fff"/>
  <path id="Path_9" data-name="Path 9" d="M8,.5a6.449,6.449,0,0,0-4.591,1.79C1.419,4.257,1.132,4.964.466,7.717c.652,2.447,5.024,14.841,7.075,16.306a4.315,4.315,0,0,0,5.357-.747c.652-1.607.329-3.071-.07-5.225S11.091,6.385,10.589,4.615A14.246,14.246,0,0,0,8,.5Z" transform="translate(89.285 98.476)" fill="#fff"/>
</svg>
