<svg width="242" height="99" viewBox="0 0 242 99" fill="none" xmlns="http://www.w3.org/2000/svg">
<path d="M187.057 75.4545C187.057 78.6932 186.427 81.4252 185.168 83.6506C183.908 85.8665 182.208 87.5473 180.068 88.6932C177.928 89.8295 175.542 90.3977 172.909 90.3977C170.258 90.3977 167.862 89.8248 165.722 88.679C163.591 87.5237 161.896 85.8381 160.636 83.6222C159.386 81.3968 158.761 78.6742 158.761 75.4545C158.761 72.2159 159.386 69.4886 160.636 67.2727C161.896 65.0473 163.591 63.3665 165.722 62.2301C167.862 61.0843 170.258 60.5114 172.909 60.5114C175.542 60.5114 177.928 61.0843 180.068 62.2301C182.208 63.3665 183.908 65.0473 185.168 67.2727C186.427 69.4886 187.057 72.2159 187.057 75.4545ZM178.932 75.4545C178.932 73.7121 178.7 72.2443 178.236 71.0511C177.781 69.8485 177.104 68.9394 176.205 68.3239C175.314 67.6989 174.216 67.3864 172.909 67.3864C171.602 67.3864 170.499 67.6989 169.599 68.3239C168.709 68.9394 168.032 69.8485 167.568 71.0511C167.114 72.2443 166.886 73.7121 166.886 75.4545C166.886 77.197 167.114 78.6695 167.568 79.8722C168.032 81.0653 168.709 81.9744 169.599 82.5994C170.499 83.215 171.602 83.5227 172.909 83.5227C174.216 83.5227 175.314 83.215 176.205 82.5994C177.104 81.9744 177.781 81.0653 178.236 79.8722C178.7 78.6695 178.932 77.197 178.932 75.4545Z" fill="#3D3C4A"/>
<path d="M190.875 78V48.9091H203.432C205.591 48.9091 207.48 49.3352 209.099 50.1875C210.719 51.0398 211.978 52.2377 212.878 53.7812C213.777 55.3248 214.227 57.1288 214.227 59.1932C214.227 61.2765 213.763 63.0805 212.835 64.6051C211.917 66.1297 210.624 67.304 208.957 68.1278C207.3 68.9517 205.364 69.3636 203.148 69.3636H195.648V63.2273H201.557C202.485 63.2273 203.276 63.0663 203.929 62.7443C204.592 62.4129 205.098 61.9441 205.449 61.3381C205.809 60.732 205.989 60.017 205.989 59.1932C205.989 58.3598 205.809 57.6496 205.449 57.0625C205.098 56.4659 204.592 56.0114 203.929 55.6989C203.276 55.3769 202.485 55.2159 201.557 55.2159H198.773V78H190.875ZM232.807 58C232.731 57.053 232.376 56.3144 231.741 55.7841C231.116 55.2538 230.165 54.9886 228.886 54.9886C228.072 54.9886 227.404 55.0881 226.884 55.2869C226.372 55.4763 225.993 55.7367 225.747 56.0682C225.501 56.3996 225.373 56.7784 225.364 57.2045C225.345 57.5549 225.406 57.8722 225.548 58.1562C225.7 58.4309 225.937 58.6818 226.259 58.9091C226.58 59.1269 226.992 59.3258 227.494 59.5057C227.996 59.6856 228.593 59.8466 229.284 59.9886L231.67 60.5C233.28 60.8409 234.658 61.2907 235.804 61.8494C236.95 62.4081 237.887 63.0663 238.616 63.8239C239.346 64.572 239.881 65.4148 240.222 66.3523C240.572 67.2898 240.752 68.3125 240.761 69.4205C240.752 71.3333 240.274 72.9527 239.327 74.2784C238.38 75.6042 237.026 76.6127 235.264 77.304C233.512 77.9953 231.405 78.3409 228.943 78.3409C226.415 78.3409 224.208 77.9669 222.324 77.2188C220.449 76.4706 218.991 75.3201 217.949 73.767C216.917 72.2045 216.396 70.2064 216.386 67.7727H223.886C223.934 68.6629 224.156 69.411 224.554 70.017C224.952 70.6231 225.51 71.0824 226.23 71.3949C226.959 71.7074 227.826 71.8636 228.83 71.8636C229.672 71.8636 230.378 71.7595 230.946 71.5511C231.514 71.3428 231.945 71.054 232.239 70.6847C232.532 70.3153 232.684 69.8939 232.693 69.4205C232.684 68.9754 232.537 68.5871 232.253 68.2557C231.978 67.9148 231.524 67.6117 230.889 67.3466C230.255 67.072 229.398 66.8163 228.318 66.5795L225.42 65.9545C222.845 65.3958 220.813 64.4631 219.327 63.1562C217.849 61.84 217.116 60.0455 217.125 57.7727C217.116 55.9261 217.608 54.3116 218.602 52.929C219.606 51.5369 220.993 50.4527 222.764 49.6761C224.545 48.8996 226.585 48.5114 228.886 48.5114C231.235 48.5114 233.266 48.9044 234.98 49.6903C236.694 50.4763 238.015 51.5843 238.943 53.0142C239.881 54.4347 240.354 56.0966 240.364 58H232.807Z" fill="#3D3C4A"/>
<path d="M9.26136 75L0.681818 45.9091H9.48864L13.4659 63.8068H13.6932L18.4091 45.9091H25.3409L30.0568 63.8636H30.2841L34.2614 45.9091H43.0682L34.4886 75H26.9318L21.9886 58.75H21.7614L16.8182 75H9.26136ZM71.9709 60.4545C71.9709 63.6932 71.3411 66.4252 70.0817 68.6506C68.8222 70.8665 67.1224 72.5473 64.9822 73.6932C62.8421 74.8295 60.4557 75.3977 57.8232 75.3977C55.1716 75.3977 52.7758 74.8248 50.6357 73.679C48.505 72.5237 46.8099 70.8381 45.5504 68.6222C44.3004 66.3968 43.6754 63.6742 43.6754 60.4545C43.6754 57.2159 44.3004 54.4886 45.5504 52.2727C46.8099 50.0473 48.505 48.3665 50.6357 47.2301C52.7758 46.0843 55.1716 45.5114 57.8232 45.5114C60.4557 45.5114 62.8421 46.0843 64.9822 47.2301C67.1224 48.3665 68.8222 50.0473 70.0817 52.2727C71.3411 54.4886 71.9709 57.2159 71.9709 60.4545ZM63.8459 60.4545C63.8459 58.7121 63.6139 57.2443 63.1499 56.0511C62.6953 54.8485 62.0182 53.9394 61.1186 53.3239C60.2285 52.6989 59.13 52.3864 57.8232 52.3864C56.5163 52.3864 55.4131 52.6989 54.5135 53.3239C53.6233 53.9394 52.9463 54.8485 52.4822 56.0511C52.0277 57.2443 51.8004 58.7121 51.8004 60.4545C51.8004 62.197 52.0277 63.6695 52.4822 64.8722C52.9463 66.0653 53.6233 66.9744 54.5135 67.5994C55.4131 68.215 56.5163 68.5227 57.8232 68.5227C59.13 68.5227 60.2285 68.215 61.1186 67.5994C62.0182 66.9744 62.6953 66.0653 63.1499 64.8722C63.6139 63.6695 63.8459 62.197 63.8459 60.4545ZM75.625 75V45.9091H88.1818C90.3409 45.9091 92.2301 46.3021 93.8494 47.0881C95.4688 47.8741 96.7282 49.0057 97.6278 50.483C98.5275 51.9602 98.9773 53.7311 98.9773 55.7955C98.9773 57.8788 98.5133 59.6354 97.5852 61.0653C96.6667 62.4953 95.3741 63.5748 93.7074 64.304C92.0502 65.0331 90.1136 65.3977 87.8977 65.3977H80.3977V59.2614H86.3068C87.2348 59.2614 88.0256 59.1477 88.679 58.9205C89.3419 58.6837 89.8485 58.3097 90.1989 57.7983C90.5587 57.2869 90.7386 56.6193 90.7386 55.7955C90.7386 54.9621 90.5587 54.285 90.1989 53.7642C89.8485 53.2339 89.3419 52.8456 88.679 52.5994C88.0256 52.3437 87.2348 52.2159 86.3068 52.2159H83.5227V75H75.625ZM92.6705 61.6477L99.9432 75H91.3636L84.2614 61.6477H92.6705ZM113.537 75H102.344V45.9091H113.423C116.416 45.9091 119.001 46.4915 121.179 47.6562C123.366 48.8116 125.052 50.4782 126.236 52.6562C127.429 54.8248 128.026 57.4242 128.026 60.4545C128.026 63.4848 127.434 66.089 126.25 68.267C125.066 70.4356 123.39 72.1023 121.222 73.267C119.053 74.4223 116.491 75 113.537 75ZM110.241 68.2955H113.253C114.692 68.2955 115.919 68.0634 116.932 67.5994C117.955 67.1354 118.731 66.3352 119.261 65.1989C119.801 64.0625 120.071 62.4811 120.071 60.4545C120.071 58.428 119.796 56.8466 119.247 55.7102C118.707 54.5739 117.912 53.7737 116.861 53.3097C115.819 52.8456 114.541 52.6136 113.026 52.6136H110.241V68.2955ZM131.68 75V45.9091H144.237C146.396 45.9091 148.285 46.3021 149.904 47.0881C151.523 47.8741 152.783 49.0057 153.683 50.483C154.582 51.9602 155.032 53.7311 155.032 55.7955C155.032 57.8788 154.568 59.6354 153.64 61.0653C152.721 62.4953 151.429 63.5748 149.762 64.304C148.105 65.0331 146.168 65.3977 143.952 65.3977H136.452V59.2614H142.362C143.29 59.2614 144.08 59.1477 144.734 58.9205C145.397 58.6837 145.903 58.3097 146.254 57.7983C146.613 57.2869 146.793 56.6193 146.793 55.7955C146.793 54.9621 146.613 54.285 146.254 53.7642C145.903 53.2339 145.397 52.8456 144.734 52.5994C144.08 52.3437 143.29 52.2159 142.362 52.2159H139.577V75H131.68ZM148.725 61.6477L155.998 75H147.418L140.316 61.6477H148.725Z" fill="#3D3C4A"/>
<path d="M73.7438 11.0797C74.6284 10.6606 77.8746 11.2105 81.6964 11.2636C85.2602 11.3134 88.9022 11.0675 89.7785 10.7048C91.5701 9.95986 92.2197 8.67432 93.3371 7.76451C95.2098 6.23964 96.7319 5.192 96.7319 5.192C103.039 1.92714 108.67 4.59928 111.884 3.99585C115.097 3.39241 124.06 -0.839521 130.611 0.148971C134.429 0.724932 141.413 2.43047 145.759 7.89208C147.668 10.2942 149.051 13.4031 149.616 18.0499C149.941 20.722 150.162 25.1933 149.684 27.7346C149.207 30.2759 148.614 33.1277 146.183 35.8665C143.753 38.6052 139.424 41.6028 137.495 42.2509C134.05 43.4084 131.391 42.9056 131.193 42.8055C130.604 42.5079 130.298 40.7237 130.96 40.0048C131.623 39.2859 132.131 39.5774 133.917 38.1335C135.704 36.6897 137.913 34.4715 137.316 32.8665C136.3 30.1278 134.725 28.4833 133.492 27.9068C131.693 27.2074 129.822 26.7077 127.914 26.4169C126.624 26.2628 124.769 25.9941 123.207 26.7894C122.338 27.2574 121.583 27.9122 120.996 28.7066C120.41 29.501 120.007 30.4153 119.815 31.384C119.595 32.5641 119.222 33.7102 118.704 34.7932C117.659 36.935 114.77 40.3559 111.813 41.7089C108.856 43.062 103.274 43.6254 102.54 42.0158C101.806 40.4062 102.313 39.6034 104.042 38.9809C105.772 38.3584 109.356 35.5554 110.049 33.7856C110.742 32.0159 111.059 29.7725 109.987 27.8542C108.915 25.9359 105.946 22.1738 104.043 22.0313C102.14 21.8888 95.9194 22.0206 94.9332 22.2092C90.9495 22.9709 86.3194 22.9211 81.1977 22.0834C74.085 20.9194 73.5519 19.2991 72.4005 16.6949C71.249 14.0908 72.8582 11.4973 73.7438 11.0797Z" fill="#3B82F6"/>
<path d="M148.161 12.1189C148.161 12.1189 158.016 3.9954 159.908 3.76958C161.8 3.54376 166.346 3.74117 167.078 3.93905C167.811 4.13694 169.761 4.786 169.083 5.32239C168.406 5.85877 163.38 6.62145 163.38 6.62145L157.337 7.01675L149.236 16.0235C149.236 16.0235 149.015 14.7761 148.731 13.8351C148.448 12.8941 148.161 12.1189 148.161 12.1189Z" fill="#3B82F6"/>
<path d="M150.781 22.7731C150.879 24.2962 150.781 26.2238 150.781 26.2238C150.781 26.2238 159.925 25.7926 164.669 21.5011C169.412 17.2096 170.995 12.9455 171.134 11.2232C171.274 9.5009 170.824 6.70678 170.429 6.5359C170.033 6.36502 165.798 12.2112 165.488 12.9455C165.177 13.6798 163.963 16.6704 163.963 16.6704L150.781 22.7731Z" fill="#3B82F6"/>
<path d="M169.844 6.24316L157.664 14.132C157.664 14.132 157.015 15.4027 156.365 15.7416C155.716 16.0806 154.671 15.9959 154.389 15.5442C154.107 15.0926 154.502 14.1041 154.953 13.7372C155.609 13.3142 156.376 13.0978 157.156 13.1161C157.89 13.1445 169.844 6.24363 169.844 6.24363L169.844 6.24316Z" fill="#3B82F6"/>
<path d="M101.01 12.6385C101.438 12.9609 101.467 13.8182 100.684 14.858C99.9005 15.8978 99.3747 15.7256 98.9023 15.3696C98.4298 15.0137 98.1889 14.6088 98.9727 13.5686C99.7564 12.5285 100.582 12.3162 101.01 12.6385Z" fill="white"/>
<path d="M88.6973 10.9394C88.6973 10.9394 88.9288 10.9089 89.16 10.8624C89.3911 10.8159 89.6258 10.7607 89.6258 10.7607C89.6369 12.6026 90.1339 14.4089 91.0666 15.9973C92.6505 18.8142 96.8804 22.0642 96.8804 22.0642L95.5961 22.139C95.5961 22.139 91.7246 19.187 90.176 16.3504C88.6275 13.5137 88.8348 12.3408 88.6973 10.9394Z" fill="white"/>
<path d="M150.65 27.2988C150.387 30.173 149.371 32.9271 147.705 35.2836C147.705 35.2836 150.646 41.235 151.485 42.603C152.796 43.523 154.4 42.603 154.545 42.143C154.69 41.6829 154.247 39.5821 153.233 34.7821C152.219 29.9821 150.65 27.2988 150.65 27.2988Z" fill="#3B82F6"/>
<path d="M125.581 27.0273C124.451 27.0041 123.358 27.4301 122.541 28.2118C121.224 29.5155 121.034 29.9811 120.593 31.8058C121.024 33.4252 123.918 41.6302 125.276 42.5992C126.665 43.2422 127.722 43.1192 128.822 42.1047C129.254 41.0408 129.04 40.0723 128.776 38.6461C128.511 37.22 127.626 30.924 127.294 29.7529C126.961 28.5819 125.581 27.0273 125.581 27.0273Z" fill="#3B82F6"/>
</svg>
