<?xml version="1.0" encoding="iso-8859-1"?>
<!-- Uploaded to: SVG Repo, www.svgrepo.com, Generator: SVG Repo Mixer Tools -->
<svg height="800px" width="800px" version="1.1" id="Layer_1" xmlns="http://www.w3.org/2000/svg" xmlns:xlink="http://www.w3.org/1999/xlink" 
	 viewBox="0 0 512 512" xml:space="preserve">
<path style="fill:#E4EAF6;" d="M132.414,44.138v67.851c0,18.73,7.441,36.693,20.684,49.937l71.249,71.249
	c3.311,3.311,5.171,7.801,5.171,12.484v20.684c0,4.682-1.86,9.173-5.171,12.484l-71.249,71.249
	c-13.244,13.242-20.684,31.206-20.684,49.935v67.851h247.172v-67.851c0-18.73-7.441-36.693-20.684-49.937l-71.249-71.249
	c-3.311-3.311-5.171-7.801-5.171-12.484v-20.684c0-4.682,1.86-9.173,5.171-12.484l71.249-71.249
	c13.244-13.243,20.684-31.206,20.684-49.935V44.138H132.414z"/>
<path style="fill:#D7DEED;" d="M220.69,115.456v-62.49h-88.276v59.023c0,18.73,7.441,36.692,20.684,49.937l71.247,71.247
	c3.311,3.311,5.172,7.802,5.172,12.484v20.684c0,4.682-1.86,9.173-5.171,12.484l-71.247,71.247
	c-13.245,13.245-20.685,31.208-20.685,49.938v59.023h88.276v-62.49c0-17.078,2.753-34.046,8.154-50.248l14.705-44.114
	c2.4-7.201,3.624-14.742,3.624-22.333v-47.7c0-7.591-1.224-15.132-3.624-22.333l-14.705-44.114
	C223.443,149.502,220.69,132.534,220.69,115.456z"/>
<path style="fill:#FFD782;" d="M340.177,368.802l-28.182-28.182c-3.311-3.311-7.801-5.171-12.484-5.171h-17.027
	c-9.751,0-17.655-7.904-17.655-17.655v-84.623c0-9.365,3.721-18.347,10.343-24.969l43.066-43.063
	c2.526-2.526,3.281-6.319,1.913-9.621c-1.366-3.293-4.586-5.449-8.156-5.449h-111.99c-3.569,0-6.788,2.155-8.156,5.449
	c-1.366,3.302-0.612,7.095,1.913,9.621l43.066,43.063c6.623,6.622,10.343,15.604,10.343,24.969v84.622
	c0,9.751-7.904,17.655-17.655,17.655h-17.028c-4.682,0-9.172,1.859-12.483,5.17l-28.179,28.174
	c-8.278,8.279-12.929,19.508-12.929,31.217v32.543c0,4.875,3.953,8.828,8.828,8.828h176.552c4.875,0,8.828-3.953,8.828-8.828V400.01
	C353.103,388.305,348.454,377.078,340.177,368.802z"/>
<g>
	<path style="fill:#FFC36E;" d="M191.849,155.518c-1.366,3.302-0.612,7.095,1.913,9.621l43.066,43.062
		c6.623,6.622,10.344,15.604,10.344,24.969v-1.02c0-7.591-1.224-15.132-3.624-22.333l-14.705-44.115
		c-1.711-5.135-3.059-10.367-4.235-15.634h-24.604C196.436,150.069,193.216,152.224,191.849,155.518z"/>
	<path style="fill:#FFC36E;" d="M220.69,396.544c0-17.078,2.753-34.046,8.154-50.248l3.719-11.155
		c-0.993,0.173-2.002,0.307-3.044,0.307H212.49c-4.682,0-9.173,1.859-12.483,5.171l-28.179,28.174
		c-8.279,8.278-12.931,19.508-12.931,31.217v32.542c0,4.875,3.953,8.828,8.828,8.828h52.966L220.69,396.544L220.69,396.544z"/>
</g>
<path style="fill:#5B5D6E;" d="M379.586,52.966H132.414c-4.875,0-8.828-3.953-8.828-8.828V26.483h264.828v17.655
	C388.414,49.013,384.461,52.966,379.586,52.966z"/>
<path style="fill:#464655;" d="M220.69,44.138V26.483h-97.103v17.655c0,4.875,3.953,8.828,8.828,8.828h97.103
	C224.642,52.966,220.69,49.013,220.69,44.138z"/>
<path style="fill:#959CB3;" d="M388.414,35.31H123.586c-4.875,0-8.828-3.953-8.828-8.828V8.828c0-4.875,3.953-8.828,8.828-8.828
	h264.828c4.875,0,8.828,3.953,8.828,8.828v17.655C397.241,31.358,393.289,35.31,388.414,35.31z"/>
<path style="fill:#707487;" d="M211.862,26.483V8.828c0-4.875,3.953-8.828,8.828-8.828h-97.103c-4.875,0-8.828,3.953-8.828,8.828
	v17.655c0,4.875,3.953,8.828,8.828,8.828h97.103C215.815,35.31,211.862,31.358,211.862,26.483z"/>
<path style="fill:#5B5D6E;" d="M379.586,459.034H132.414c-4.875,0-8.828,3.953-8.828,8.828v17.655h264.828v-17.655
	C388.414,462.987,384.461,459.034,379.586,459.034z"/>
<path style="fill:#464655;" d="M220.69,467.862v17.655h-97.103v-17.655c0-4.875,3.953-8.828,8.828-8.828h97.103
	C224.642,459.034,220.69,462.987,220.69,467.862z"/>
<path style="fill:#959CB3;" d="M388.414,476.69H123.586c-4.875,0-8.828,3.953-8.828,8.828v17.655c0,4.875,3.953,8.828,8.828,8.828
	h264.828c4.875,0,8.828-3.953,8.828-8.828v-17.655C397.241,480.642,393.289,476.69,388.414,476.69z"/>
<path style="fill:#707487;" d="M211.862,485.517v17.655c0,4.875,3.953,8.828,8.828,8.828h-97.103c-4.875,0-8.828-3.953-8.828-8.828
	v-17.655c0-4.875,3.953-8.828,8.828-8.828h97.103C215.815,476.69,211.862,480.642,211.862,485.517z"/>
</svg>